<svg id="svg" version="1.1" xmlns="http://www.w3.org/2000/svg" xmlns:xlink="http://www.w3.org/1999/xlink" width="400" height="225" viewBox="0, 0, 400,225"><g id="svgg"><path id="path0" d="M61.259 83.037 C 57.707 84.578,56.816 88.979,59.530 91.579 C 64.308 96.157,71.283 89.501,67.007 84.443 C 65.729 82.931,63.028 82.270,61.259 83.037 M64.589 85.211 C 66.822 86.350,66.765 89.519,64.491 90.619 C 62.813 91.432,61.364 90.905,60.460 89.154 C 59.101 86.523,61.907 83.843,64.589 85.211 " stroke="none" fill="#150e16" fill-rule="evenodd"></path><path id="path1" d="M60.208 64.471 C 60.036 64.512,59.193 64.660,58.333 64.800 C 57.474 64.939,56.536 65.151,56.250 65.270 C 55.964 65.389,55.682 65.502,55.625 65.521 C 55.568 65.541,55.333 65.634,55.104 65.728 C 54.875 65.822,54.220 66.079,53.648 66.300 C 53.076 66.520,52.560 66.768,52.502 66.850 C 52.444 66.933,52.032 67.170,51.587 67.378 C 49.687 68.262,45.528 72.000,44.248 73.974 C 43.919 74.481,43.591 74.943,43.520 75.000 C 43.448 75.057,43.178 75.526,42.920 76.042 C 42.662 76.557,42.337 77.120,42.198 77.292 C 42.058 77.464,41.730 78.214,41.468 78.958 C 41.206 79.703,40.919 80.406,40.830 80.521 C 39.593 82.118,39.613 93.805,40.856 95.335 C 40.959 95.462,41.225 96.093,41.447 96.737 C 41.869 97.964,43.297 100.679,43.583 100.799 C 43.675 100.837,43.750 100.998,43.750 101.157 C 43.750 101.316,44.170 101.894,44.684 102.442 C 45.198 102.989,45.620 103.488,45.621 103.549 C 45.627 103.721,47.461 105.625,47.621 105.625 C 47.699 105.625,48.125 105.953,48.569 106.354 C 49.013 106.755,49.475 107.083,49.596 107.083 C 49.717 107.083,49.758 107.177,49.688 107.292 C 49.617 107.406,49.744 107.500,49.970 107.500 C 50.197 107.500,50.413 107.575,50.451 107.666 C 50.696 108.251,55.330 110.324,57.500 110.819 L 59.063 111.176 59.116 126.418 L 59.169 141.659 59.637 141.775 C 59.894 141.838,61.651 141.863,63.542 141.830 L 66.979 141.771 67.033 126.510 C 67.062 118.117,67.126 111.250,67.175 111.250 C 67.429 111.250,70.357 110.600,70.625 110.484 C 70.797 110.409,70.984 110.335,71.042 110.318 C 71.099 110.301,71.482 110.140,71.893 109.960 C 72.304 109.780,72.841 109.569,73.087 109.491 C 73.560 109.341,75.763 108.080,76.189 107.715 C 76.328 107.597,76.492 107.500,76.554 107.500 C 76.616 107.500,76.667 115.188,76.667 124.583 L 76.667 141.667 80.512 141.667 L 84.356 141.667 84.419 129.323 L 84.482 116.979 85.046 115.313 C 88.414 105.364,101.325 104.409,104.105 113.903 C 104.416 114.962,104.466 116.679,104.533 128.385 L 104.608 141.667 108.459 141.667 L 112.310 141.667 112.236 127.135 C 112.153 110.897,112.191 111.352,110.636 108.021 C 106.333 98.806,91.564 97.555,85.006 105.850 L 84.167 106.912 84.167 104.290 L 84.167 101.667 83.438 101.667 C 83.036 101.667,82.708 101.573,82.708 101.458 C 82.708 101.344,82.808 101.250,82.929 101.250 C 83.050 101.250,83.092 101.156,83.021 101.042 C 82.950 100.927,82.992 100.833,83.115 100.833 C 83.237 100.833,83.554 100.363,83.818 99.788 C 84.082 99.213,84.347 98.792,84.407 98.852 C 84.467 98.912,84.627 98.594,84.761 98.146 C 84.895 97.697,85.162 96.970,85.355 96.530 C 85.547 96.089,85.718 95.682,85.735 95.625 C 85.751 95.568,85.828 95.380,85.904 95.208 C 87.139 92.440,87.038 81.179,85.771 80.374 C 85.634 80.286,85.603 80.213,85.703 80.212 C 85.803 80.210,85.791 80.091,85.678 79.948 C 85.564 79.805,85.353 79.313,85.209 78.854 C 84.916 77.923,83.550 75.351,83.292 75.243 C 83.200 75.205,83.125 75.075,83.125 74.954 C 83.125 74.338,78.802 69.743,77.348 68.812 C 77.030 68.609,76.657 68.301,76.517 68.128 C 76.377 67.954,76.259 67.906,76.253 68.021 C 76.248 68.141,76.179 68.131,76.091 67.997 C 75.889 67.691,72.757 66.042,72.378 66.042 C 72.216 66.042,72.083 65.942,72.083 65.821 C 72.083 65.700,71.985 65.661,71.866 65.735 C 71.746 65.809,71.512 65.756,71.345 65.617 C 71.178 65.479,71.042 65.435,71.042 65.521 C 71.042 65.606,70.917 65.573,70.765 65.447 C 70.006 64.816,61.894 64.067,60.208 64.471 M67.009 71.113 C 67.942 71.299,68.974 71.554,69.301 71.678 C 69.628 71.802,69.932 71.890,69.977 71.872 C 70.021 71.854,70.115 71.918,70.185 72.013 C 70.255 72.109,70.898 72.463,71.615 72.799 C 72.331 73.135,72.917 73.466,72.917 73.535 C 72.917 73.604,73.221 73.840,73.594 74.059 C 74.476 74.578,77.217 77.355,77.392 77.906 C 77.467 78.141,77.598 78.333,77.684 78.333 C 77.770 78.333,78.115 78.919,78.451 79.635 C 78.787 80.352,79.141 80.995,79.237 81.065 C 79.332 81.135,79.414 81.276,79.418 81.377 C 79.422 81.479,79.509 81.783,79.612 82.053 C 80.238 83.701,80.837 89.636,80.404 89.903 C 80.297 89.970,80.208 90.330,80.208 90.702 C 80.208 91.445,79.428 94.618,79.203 94.789 C 79.126 94.848,78.849 95.348,78.589 95.901 C 77.252 98.739,73.593 102.317,71.056 103.268 C 70.532 103.464,70.049 103.704,69.982 103.801 C 69.860 103.976,67.838 104.576,67.353 104.581 C 67.185 104.583,67.081 104.081,67.040 103.073 L 66.979 101.563 63.125 101.563 L 59.271 101.563 59.210 103.073 C 59.176 103.904,59.123 104.583,59.091 104.583 C 58.833 104.583,56.748 103.881,56.667 103.766 C 56.609 103.686,56.023 103.404,55.365 103.140 C 54.706 102.876,54.167 102.597,54.167 102.521 C 54.167 102.444,53.862 102.207,53.490 101.993 C 52.536 101.445,49.871 98.798,49.332 97.865 C 49.084 97.435,48.816 97.083,48.736 97.083 C 48.656 97.083,48.374 96.544,48.110 95.885 C 47.846 95.227,47.555 94.636,47.463 94.572 C 47.207 94.396,46.458 91.284,46.458 90.396 C 46.458 89.962,46.365 89.550,46.250 89.479 C 45.720 89.151,46.813 81.696,47.455 81.269 C 47.557 81.201,47.749 80.828,47.882 80.439 C 48.557 78.467,51.309 75.219,53.438 73.882 C 53.781 73.666,54.109 73.420,54.167 73.336 C 54.589 72.714,59.120 71.046,60.408 71.038 C 60.699 71.037,61.078 70.941,61.250 70.826 C 61.680 70.537,64.944 70.700,67.009 71.113 M59.583 80.602 C 58.374 80.931,55.059 82.377,54.792 82.692 C 54.349 83.214,52.235 84.573,52.047 84.457 C 51.913 84.374,51.868 84.403,51.942 84.524 C 52.015 84.641,51.512 85.226,50.825 85.824 C 49.314 87.138,48.814 87.954,49.281 88.342 C 49.453 88.485,49.546 88.649,49.488 88.707 C 49.371 88.823,50.350 89.792,50.585 89.792 C 50.714 89.792,51.153 90.157,53.077 91.865 C 53.337 92.096,53.829 92.430,54.171 92.606 C 54.512 92.783,54.792 92.995,54.793 93.078 C 54.793 93.161,55.355 93.464,56.042 93.750 C 56.728 94.036,57.290 94.327,57.291 94.397 C 57.298 95.348,64.849 95.907,67.396 95.145 C 68.735 94.745,71.671 93.368,71.924 93.022 C 72.008 92.907,72.078 92.883,72.080 92.969 C 72.082 93.055,72.264 92.961,72.485 92.760 C 73.277 92.042,73.638 91.771,73.805 91.771 C 73.897 91.771,74.053 91.642,74.151 91.484 C 74.249 91.326,74.435 91.262,74.565 91.343 C 74.695 91.423,74.776 91.410,74.745 91.312 C 74.713 91.215,75.367 90.479,76.198 89.677 C 77.964 87.971,77.948 88.039,76.882 86.828 C 76.427 86.312,76.123 85.806,76.205 85.705 C 76.287 85.604,76.272 85.588,76.171 85.669 C 75.997 85.810,74.353 84.639,73.802 83.981 C 73.659 83.810,73.542 83.739,73.542 83.823 C 73.542 83.974,73.250 83.767,72.485 83.073 C 72.264 82.872,72.028 82.718,71.961 82.730 C 71.893 82.741,71.633 82.577,71.383 82.365 C 71.133 82.153,70.743 81.946,70.516 81.906 C 70.290 81.866,70.035 81.726,69.951 81.594 C 69.867 81.462,69.797 81.435,69.795 81.534 C 69.793 81.633,69.553 81.558,69.262 81.367 C 67.571 80.259,62.358 79.847,59.583 80.602 M65.104 83.097 C 68.506 84.648,69.476 89.501,66.804 91.603 C 66.507 91.837,66.331 92.095,66.413 92.177 C 66.495 92.259,66.469 92.304,66.354 92.277 C 66.240 92.250,65.771 92.395,65.313 92.600 C 61.595 94.264,57.511 91.272,57.989 87.236 C 58.382 83.918,62.127 81.740,65.104 83.097 M207.968 83.089 C 207.760 83.221,207.718 89.244,207.760 112.513 L 207.813 141.771 211.458 141.771 L 215.104 141.771 215.162 138.999 L 215.221 136.228 216.022 137.242 C 221.446 144.103,232.489 145.145,239.777 139.482 C 250.958 130.793,250.966 112.607,239.792 103.972 C 235.027 100.290,229.814 99.348,223.542 101.034 C 221.058 101.702,217.289 104.282,215.784 106.346 L 215.169 107.188 215.304 105.938 C 215.656 102.657,215.662 83.609,215.311 83.258 C 214.941 82.887,208.518 82.739,207.968 83.089 M191.042 112.500 L 191.042 141.875 194.896 141.875 L 198.750 141.875 198.750 112.500 L 198.750 83.125 194.896 83.125 L 191.042 83.125 191.042 112.500 M62.125 85.250 C 61.988 85.387,61.875 85.417,61.875 85.315 C 61.875 85.214,61.597 85.397,61.257 85.722 C 60.918 86.047,60.689 86.393,60.749 86.490 C 60.809 86.587,60.759 86.667,60.637 86.667 C 60.507 86.667,60.417 87.176,60.417 87.917 C 60.417 88.658,60.507 89.167,60.637 89.167 C 60.759 89.167,60.805 89.252,60.741 89.356 C 60.677 89.460,60.908 89.785,61.256 90.077 C 63.858 92.267,67.433 89.009,65.469 86.238 C 64.678 85.122,62.806 84.569,62.125 85.250 M123.125 95.521 L 123.125 101.667 119.688 101.667 L 116.250 101.667 116.250 105.104 L 116.250 108.542 119.674 108.542 L 123.098 108.542 123.180 120.885 C 123.279 135.891,123.314 136.088,126.436 139.169 C 129.639 142.332,136.353 143.360,141.362 141.455 L 141.854 141.268 140.706 137.978 C 139.392 134.213,139.435 134.282,138.628 134.593 C 135.652 135.736,132.870 134.822,131.694 132.314 L 131.146 131.146 131.084 119.844 L 131.022 108.542 135.928 108.542 L 140.833 108.542 140.833 105.104 L 140.833 101.667 135.938 101.667 L 131.042 101.667 131.042 95.521 L 131.042 89.375 127.083 89.375 L 123.125 89.375 123.125 95.521 M160.185 100.812 C 141.986 104.778,139.387 133.040,156.477 141.137 C 165.496 145.410,177.275 142.253,182.731 134.100 L 184.011 132.188 180.703 130.580 C 176.766 128.665,176.957 128.684,176.042 130.135 C 169.631 140.302,154.244 136.272,153.064 124.116 L 152.968 123.128 168.724 123.074 L 184.479 123.021 184.429 120.833 C 184.194 110.663,179.441 103.617,171.136 101.131 C 168.578 100.365,162.983 100.202,160.185 100.812 M265.000 100.822 C 261.618 101.541,259.098 102.760,256.548 104.910 C 255.535 105.765,253.603 108.059,253.773 108.207 C 254.105 108.497,260.261 112.292,260.399 112.292 C 260.495 112.292,261.312 111.561,262.214 110.669 C 267.736 105.204,276.597 106.339,279.929 112.938 C 280.450 113.969,280.953 117.708,280.571 117.708 C 280.514 117.708,279.963 117.478,279.348 117.196 C 275.947 115.639,267.436 115.113,263.438 116.213 C 255.236 118.468,251.035 124.904,252.820 132.479 C 255.434 143.565,272.344 146.798,279.583 137.596 L 280.521 136.404 280.579 139.036 L 280.637 141.667 284.381 141.667 L 288.125 141.667 288.125 128.143 C 288.125 111.834,288.029 111.064,285.514 107.281 C 281.851 101.771,273.261 99.066,265.000 100.822 M306.875 100.552 C 299.165 101.723,294.583 106.154,294.583 112.440 C 294.583 118.809,298.028 121.694,308.962 124.480 C 315.727 126.204,317.443 127.068,318.465 129.262 C 320.749 134.167,312.578 138.079,306.277 135.098 C 304.323 134.174,302.023 131.946,301.068 130.052 C 300.706 129.336,300.281 128.750,300.122 128.750 C 299.851 128.750,293.601 131.330,293.411 131.520 C 293.020 131.910,295.564 135.981,297.256 137.672 C 306.900 147.316,326.204 143.122,326.823 131.249 C 327.197 124.052,323.541 120.667,312.323 117.825 C 303.555 115.604,301.568 114.168,302.798 110.945 C 304.741 105.858,315.605 106.147,318.664 111.367 C 318.962 111.876,319.344 112.292,319.512 112.292 C 319.784 112.292,325.993 109.844,326.247 109.637 C 326.303 109.591,326.036 108.968,325.653 108.251 C 322.647 102.626,314.694 99.365,306.875 100.552 M346.435 100.812 C 328.236 104.778,325.637 133.040,342.727 141.137 C 351.746 145.410,363.525 142.253,368.981 134.100 L 370.261 132.188 366.953 130.580 C 363.016 128.665,363.207 128.684,362.292 130.135 C 355.881 140.302,340.494 136.272,339.314 124.116 L 339.218 123.128 354.974 123.074 L 370.729 123.021 370.679 120.833 C 370.444 110.663,365.691 103.617,357.386 101.131 C 354.828 100.365,349.233 100.202,346.435 100.812 M40.213 105.723 C 39.470 106.338,38.788 106.794,38.697 106.738 C 38.606 106.682,38.557 106.722,38.589 106.828 C 38.637 106.991,37.491 108.053,34.707 110.422 C 34.374 110.706,33.843 111.172,33.526 111.458 C 33.210 111.745,32.592 112.274,32.152 112.634 C 30.830 113.718,27.648 116.414,26.965 117.029 C 26.613 117.345,25.922 117.932,25.429 118.333 C 24.936 118.734,24.333 119.253,24.089 119.487 C 23.156 120.379,21.927 121.233,21.783 121.088 C 21.700 121.005,21.663 121.036,21.701 121.157 C 21.793 121.445,20.313 122.744,20.117 122.547 C 20.033 122.464,19.997 122.497,20.035 122.620 C 20.073 122.743,19.354 123.494,18.438 124.289 C 15.345 126.969,14.932 127.679,15.749 128.902 C 15.961 129.220,16.142 129.573,16.150 129.688 C 16.158 129.802,16.265 129.877,16.388 129.853 C 16.618 129.809,17.425 130.568,17.539 130.938 C 17.575 131.052,17.662 131.127,17.733 131.103 C 17.803 131.079,18.078 131.290,18.342 131.572 C 18.606 131.853,18.748 132.083,18.657 132.083 C 18.565 132.083,18.606 132.223,18.748 132.394 C 18.890 132.564,19.075 132.661,19.160 132.608 C 19.321 132.509,20.174 133.320,20.196 133.594 C 20.203 133.680,20.248 133.727,20.296 133.698 C 20.459 133.601,21.440 134.637,21.397 134.862 C 21.373 134.985,21.448 135.092,21.563 135.100 C 21.677 135.108,22.030 135.289,22.348 135.501 C 23.560 136.311,24.317 135.881,26.875 132.927 C 29.129 130.324,29.486 129.920,30.004 129.391 C 30.292 129.096,30.708 128.573,30.928 128.229 C 31.334 127.594,31.857 126.980,33.073 125.713 C 33.445 125.325,33.750 124.939,33.750 124.855 C 33.750 124.772,33.989 124.465,34.281 124.175 C 34.754 123.704,36.081 122.150,38.646 119.064 C 39.104 118.513,39.737 117.802,40.052 117.484 C 40.367 117.167,40.625 116.852,40.625 116.785 C 40.625 116.665,41.725 115.415,43.073 114.001 C 43.445 113.611,43.750 113.241,43.750 113.180 C 43.750 112.954,45.526 111.148,45.693 111.203 C 45.787 111.235,45.809 111.171,45.741 111.061 C 45.674 110.952,45.854 110.608,46.142 110.296 C 46.820 109.566,46.803 109.280,46.050 108.723 C 45.711 108.472,45.491 108.174,45.561 108.060 C 45.632 107.946,45.586 107.916,45.459 107.995 C 45.165 108.176,42.872 105.865,43.054 105.571 C 43.129 105.451,43.091 105.413,42.972 105.487 C 42.852 105.561,42.601 105.388,42.414 105.102 C 41.947 104.390,41.759 104.443,40.213 105.723 M168.438 107.850 C 172.478 108.852,175.393 112.018,176.122 116.198 L 176.240 116.875 164.902 116.875 L 153.564 116.875 153.885 115.781 C 155.736 109.480,161.761 106.196,168.438 107.850 M354.688 107.850 C 358.728 108.852,361.643 112.018,362.372 116.198 L 362.490 116.875 351.152 116.875 L 339.814 116.875 340.135 115.781 C 341.986 109.480,348.011 106.196,354.688 107.850 M231.182 107.909 C 244.134 111.969,243.112 133.337,229.852 135.735 C 220.368 137.450,212.919 127.678,215.781 117.274 C 217.786 109.984,224.595 105.843,231.182 107.909 M275.833 122.318 C 280.739 123.434,281.622 125.146,279.477 129.379 C 274.846 138.518,260.077 138.100,260.671 128.848 C 261.014 123.506,267.943 120.522,275.833 122.318 " stroke="none" fill="#fbfbfb" fill-rule="evenodd"></path><path id="path2" d="M62.867 84.939 C 63.126 84.989,63.501 84.987,63.700 84.935 C 63.900 84.883,63.688 84.842,63.229 84.844 C 62.771 84.847,62.608 84.889,62.867 84.939 M60.035 87.813 C 60.032 88.042,60.110 88.417,60.208 88.646 C 60.436 89.177,60.436 88.629,60.208 87.917 C 60.074 87.498,60.040 87.478,60.035 87.813 M62.760 90.977 C 62.961 91.029,63.289 91.029,63.490 90.977 C 63.690 90.925,63.526 90.882,63.125 90.882 C 62.724 90.882,62.560 90.925,62.760 90.977 " stroke="none" fill="#848484" fill-rule="evenodd"></path><path id="path3" d="" stroke="none" fill="#9c9c9c" fill-rule="evenodd"></path><path id="path4" d="M65.416 86.198 C 65.689 86.570,65.944 86.875,65.984 86.875 C 66.142 86.875,65.626 86.094,65.284 85.816 C 65.059 85.633,65.109 85.779,65.416 86.198 M65.124 89.841 C 64.355 90.643,64.442 90.744,65.280 90.023 C 65.611 89.738,66.167 88.926,65.997 88.976 C 65.964 88.985,65.571 89.375,65.124 89.841 " stroke="none" fill="#b0b0b0" fill-rule="evenodd"></path></g></svg>